<svg xmlns="http://www.w3.org/2000/svg" viewBox="0 0 720 240" width="720" height="240">
  <rect width="720" height="240" fill="#f6f7f8"></rect>
  <defs><mask id="lockupLightMark" maskUnits="userSpaceOnUse" x="0" y="0" width="240" height="240"><rect x="0" y="0" width="240" height="240" fill="#000"></rect><rect x="44.601" y="88.233" width="242.913" height="62.351626286829955" rx="31.175813143414977" transform="rotate(60.000 166.057 119.409)" fill="#fff"></rect><rect x="-1.456" y="168.006" width="242.913" height="62.351626286829955" rx="31.175813143414977" transform="rotate(180.000 120.000 199.182)" fill="#fff"></rect><rect x="-47.514" y="88.233" width="242.913" height="62.351626286829955" rx="31.175813143414977" transform="rotate(-60.000 73.943 119.409)" fill="#fff"></rect><rect x="44.601" y="88.233" width="242.913" height="62.351626286829955" rx="31.175813143414977" transform="rotate(60.000 166.057 119.409)" fill="none" stroke="#000" stroke-width="12.837099529641462"></rect><rect x="-1.456" y="168.006" width="242.913" height="62.351626286829955" rx="31.175813143414977" transform="rotate(180.000 120.000 199.182)" fill="none" stroke="#000" stroke-width="12.837099529641462"></rect><rect x="-47.514" y="88.233" width="242.913" height="62.351626286829955" rx="31.175813143414977" transform="rotate(-60.000 73.943 119.409)" fill="none" stroke="#000" stroke-width="12.837099529641462"></rect></mask></defs>
  <rect x="0" y="0" width="240" height="240" fill="#0b0d0e" mask="url(#lockupLightMark)"></rect>
  <text x="280" y="142" font-family="Arial, Helvetica, sans-serif" font-weight="700" font-size="100" letter-spacing="-2" fill="#0b0d0e">Binder</text>
</svg>
