<svg xmlns="http://www.w3.org/2000/svg" width="512" height="512" viewBox="0 0 240 240" shape-rendering="geometricPrecision"><defs><mask id="kf" maskUnits="userSpaceOnUse" x="0" y="0" width="240" height="240"><rect x="0" y="0" width="240" height="240" fill="#000"></rect><rect x="69.429" y="98.721" width="162.925" height="41.82" rx="20.91" transform="rotate(60.000 150.891 119.631)" fill="#fff"></rect><rect x="38.538" y="152.226" width="162.925" height="41.82" rx="20.91" transform="rotate(180.000 120.000 173.136)" fill="#fff"></rect><rect x="7.647" y="98.721" width="162.925" height="41.82" rx="20.91" transform="rotate(-60.000 89.109 119.631)" fill="#fff"></rect><rect x="69.429" y="98.721" width="162.925" height="41.82" rx="20.91" transform="rotate(60.000 150.891 119.631)" fill="none" stroke="#000" stroke-width="8.61"></rect><rect x="38.538" y="152.226" width="162.925" height="41.82" rx="20.91" transform="rotate(180.000 120.000 173.136)" fill="none" stroke="#000" stroke-width="8.61"></rect><rect x="7.647" y="98.721" width="162.925" height="41.82" rx="20.91" transform="rotate(-60.000 89.109 119.631)" fill="none" stroke="#000" stroke-width="8.61"></rect></mask></defs><path d="M34,0 h172 a34,34 0 0 1 34,34 v172 a34,34 0 0 1 -34,34 h-172 a34,34 0 0 1 -34,-34 v-172 a34,34 0 0 1 34,-34 z" fill="#0b0d0e"></path><rect x="0" y="0" width="240" height="240" fill="#f6f7f8" mask="url(#kf)"></rect></svg>