<svg xmlns="http://www.w3.org/2000/svg" width="3600" height="3600" viewBox="0 0 240 240" shape-rendering="geometricPrecision"><defs><mask id="kid" maskUnits="userSpaceOnUse" x="0" y="0" width="240" height="240"><rect x="0" y="0" width="240" height="240" fill="#000"></rect><rect x="57.605" y="93.796" width="201.016" height="51.59744408945687" rx="25.798722044728436" transform="rotate(60.000 158.113 119.595)" fill="#fff"></rect><rect x="19.492" y="159.811" width="201.016" height="51.59744408945687" rx="25.798722044728436" transform="rotate(180.000 120.000 185.610)" fill="#fff"></rect><rect x="-18.621" y="93.796" width="201.016" height="51.59744408945687" rx="25.798722044728436" transform="rotate(-60.000 81.887 119.595)" fill="#fff"></rect><rect x="57.605" y="93.796" width="201.016" height="51.59744408945687" rx="25.798722044728436" transform="rotate(60.000 158.113 119.595)" fill="none" stroke="#000" stroke-width="10.62300319488818"></rect><rect x="19.492" y="159.811" width="201.016" height="51.59744408945687" rx="25.798722044728436" transform="rotate(180.000 120.000 185.610)" fill="none" stroke="#000" stroke-width="10.62300319488818"></rect><rect x="-18.621" y="93.796" width="201.016" height="51.59744408945687" rx="25.798722044728436" transform="rotate(-60.000 81.887 119.595)" fill="none" stroke="#000" stroke-width="10.62300319488818"></rect></mask></defs><rect x="0" y="0" width="240" height="240" fill="#0b0d0e"></rect><rect x="0" y="0" width="240" height="240" fill="#f6f7f8" mask="url(#kid)"></rect></svg>