<svg xmlns="http://www.w3.org/2000/svg" viewBox="0 0 720 240" width="720" height="240">
  <rect width="720" height="240" fill="#f6f7f8"></rect>
  <defs><mask id="lockupLightMark" maskUnits="userSpaceOnUse" x="0" y="0" width="240" height="240"><rect x="0" y="0" width="240" height="240" fill="#000"></rect><rect x="50.516" y="90.763" width="223.856" height="57.46" rx="28.73" transform="rotate(60.000 162.444 119.493)" fill="#fff"></rect><rect x="8.072" y="164.278" width="223.856" height="57.46" rx="28.73" transform="rotate(180.000 120.000 193.008)" fill="#fff"></rect><rect x="-34.372" y="90.763" width="223.856" height="57.46" rx="28.73" transform="rotate(-60.000 77.556 119.493)" fill="#fff"></rect><rect x="50.516" y="90.763" width="223.856" height="57.46" rx="28.73" transform="rotate(60.000 162.444 119.493)" fill="none" stroke="#000" stroke-width="11.83"></rect><rect x="8.072" y="164.278" width="223.856" height="57.46" rx="28.73" transform="rotate(180.000 120.000 193.008)" fill="none" stroke="#000" stroke-width="11.83"></rect><rect x="-34.372" y="90.763" width="223.856" height="57.46" rx="28.73" transform="rotate(-60.000 77.556 119.493)" fill="none" stroke="#000" stroke-width="11.83"></rect></mask></defs>
  <rect x="0" y="0" width="240" height="240" fill="#0b0d0e" mask="url(#lockupLightMark)"></rect>
  <text x="280" y="142" font-family="Arial, Helvetica, sans-serif" font-weight="700" font-size="100" letter-spacing="-2" fill="#0b0d0e">Binder</text>
</svg>
