<svg xmlns="http://www.w3.org/2000/svg" width="3600" height="3600" viewBox="0 0 240 240" shape-rendering="geometricPrecision"><defs><mask id="kil" maskUnits="userSpaceOnUse" x="0" y="0" width="240" height="240"><rect x="0" y="0" width="240" height="240" fill="#000"></rect><rect x="62.439" y="95.780" width="185.443" height="47.599999999999994" rx="23.799999999999997" transform="rotate(60.000 155.161 119.580)" fill="#fff"></rect><rect x="27.279" y="156.680" width="185.443" height="47.599999999999994" rx="23.799999999999997" transform="rotate(180.000 120.000 180.480)" fill="#fff"></rect><rect x="-7.882" y="95.780" width="185.443" height="47.599999999999994" rx="23.799999999999997" transform="rotate(-60.000 84.839 119.580)" fill="#fff"></rect><rect x="62.439" y="95.780" width="185.443" height="47.599999999999994" rx="23.799999999999997" transform="rotate(60.000 155.161 119.580)" fill="none" stroke="#000" stroke-width="9.799999999999999"></rect><rect x="27.279" y="156.680" width="185.443" height="47.599999999999994" rx="23.799999999999997" transform="rotate(180.000 120.000 180.480)" fill="none" stroke="#000" stroke-width="9.799999999999999"></rect><rect x="-7.882" y="95.780" width="185.443" height="47.599999999999994" rx="23.799999999999997" transform="rotate(-60.000 84.839 119.580)" fill="none" stroke="#000" stroke-width="9.799999999999999"></rect></mask></defs><rect x="0" y="0" width="240" height="240" fill="#f6f7f8"></rect><rect x="0" y="0" width="240" height="240" fill="#0b0d0e" mask="url(#kil)"></rect></svg>